<svg id="Capa_1" data-name="Capa 1" xmlns="http://www.w3.org/2000/svg" viewBox="0 0 12.75 14.54"><defs><style>.cls-1{fill:#09054f;}</style></defs><path class="cls-1" d="M2.29,2.53A3.87,3.87,0,0,1,3.9,1.14a4.51,4.51,0,0,1,.78-.3H2V3.06A3.84,3.84,0,0,1,2.29,2.53Z" transform="translate(-2.01 -0.84)"/><path class="cls-1" d="M9.62,13.54A2.84,2.84,0,0,0,10.07,12a2.62,2.62,0,0,0-.52-1.72,3.18,3.18,0,0,0-1.3-1,17.45,17.45,0,0,0-2.1-.68,18.63,18.63,0,0,1-2.33-.77A3.71,3.71,0,0,1,2.33,6.67,2.8,2.8,0,0,1,2,6.11V12h.5a3.57,3.57,0,0,0,1.1,2.09,3.87,3.87,0,0,0,2.82.92,4.32,4.32,0,0,0,1.93-.41A3.09,3.09,0,0,0,9.62,13.54Z" transform="translate(-2.01 -0.84)"/><path class="cls-1" d="M3.9,15.37A4.13,4.13,0,0,1,2.2,14c-.07-.1-.13-.2-.19-.3v1.7H3.9Z" transform="translate(-2.01 -0.84)"/><path class="cls-1" d="M13.82,4.29a6.55,6.55,0,0,0-2.69-2.55,8.19,8.19,0,0,0-3-.85,4.17,4.17,0,0,1,1.35.72A3.82,3.82,0,0,1,11,4h-1a3.12,3.12,0,0,0-.56-1.17,3.4,3.4,0,0,0-1.24-1,4.26,4.26,0,0,0-1.9-.39,3.89,3.89,0,0,0-2.52.82,2.66,2.66,0,0,0-1,2.18A2.68,2.68,0,0,0,3.21,6.2a3.51,3.51,0,0,0,1.31,1,16,16,0,0,0,2.1.67A17.86,17.86,0,0,1,9,8.63,3.53,3.53,0,0,1,10.42,9.8,3.44,3.44,0,0,1,11,12a3.71,3.71,0,0,1-.53,1.9,4.09,4.09,0,0,1-1.33,1.32,8,8,0,0,0,2-.69A6.57,6.57,0,0,0,13.82,12a7.53,7.53,0,0,0,.94-3.83A7.59,7.59,0,0,0,13.82,4.29Z" transform="translate(-2.01 -0.84)"/></svg>